<svg xmlns="http://www.w3.org/2000/svg" viewBox="0 0 186 206"><path fill="#fbfbfb" stroke="#fbfbfb" d="M83.571 1.58C75.258 4.625 12.638 41.44 7.956 46.035.02 53.823-.001 53.981.01 103.428L.02 146.5l2.423 5c4.592 9.472 4.321 9.275 45.557 33.073 48.381 27.922 41.753 27.816 87.626 1.401 44.371-25.549 47.095-27.642 48.965-37.609.346-1.841 1.029-3.1 1.519-2.797.515.318.884-18.108.875-43.759-.01-28.977-.351-43.79-.985-42.809-.804 1.244-.974 1.158-.994-.5-.04-3.222-5.537-11.905-9.405-14.855-4.259-3.249-63.942-37.887-71.101-41.266C98.669-.373 89.824-.71 83.571 1.58M89.5 14.679c-4.249.937-9.793 3.479-16.264 7.456C69.531 24.412 61.325 29.183 55 32.739c-29.047 16.326-35.34 20.463-38.254 25.15-2.204 3.543-2.252 4.296-2.567 40.111-.364 41.461.102 45.956 5.311 51.234C22.263 152.043 58.611 174 60.489 174c.37 0 2.998 1.532 5.842 3.404 22.905 15.083 28.848 15.216 50.669 1.131 3.575-2.308 7.182-4.442 8.015-4.744 4.461-1.614 37.018-21.46 40.114-24.453C170.48 144.166 171 139.972 171 102c0-37.209-.616-42.557-5.462-47.381-2.848-2.836-18.137-12.177-39.038-23.852-4.4-2.458-10.98-6.306-14.621-8.551-10.178-6.274-17.273-8.664-22.379-7.537M50.24 49.25c-.604 1.237-2.22 5.4-3.592 9.25a841.557 841.557 0 0 1-5.163 14c-3.207 8.416-7.047 19.007-9.607 26.5-1.033 3.025-2.299 6.4-2.813 7.5-.513 1.1-3.213 8.116-5.999 15.591C16.102 140.772 16.34 144 24.677 144c5.957 0 4.982 1.83 17.843-33.5 11.289-31.013 13.844-37.522 14.442-36.804.995 1.194 3.307 7.066 9.57 24.304 3.097 8.525 6.691 18.2 7.986 21.5C79.942 133.318 82 138.894 82 139.766c0 2.092 3.858 4.234 7.629 4.234 7.006 0 7.939-3.138 3.965-13.329A418.86 418.86 0 0 1 88.94 118c-1.236-3.575-4.228-11.675-6.65-18-2.422-6.325-5.084-13.525-5.917-16-2.611-7.767-10.4-28.311-12.416-32.75C62.036 47.021 62 47 56.682 47c-4.55 0-5.507.334-6.442 2.25m46.682.456c-.66 1.736-.92 16.346-.726 40.75L96.5 128.5l2.792 5.685c1.92 3.91 3.715 6.093 5.75 6.994 1.627.72 2.958 1.649 2.958 2.065 0 .416 12.995.756 28.878.756 33.809 0 31.622.761 31.622-11.004 0-11.627 1.55-10.996-26.997-10.996-13.339 0-25.659-.281-27.378-.625L111 120.75V85.809c0-22.173-.378-35.647-1.035-36.875-1.801-3.365-11.693-2.78-13.043.772M.46 103c0 24.475.13 34.488.289 22.25.159-12.237.159-32.262 0-44.5C.59 68.513.46 78.525.46 103" fill-rule="evenodd"/><path fill="#6da418" stroke="#6da418" d="M83.571 1.58C75.258 4.625 12.638 41.44 7.956 46.035.02 53.823-.001 53.981.01 103.428L.02 146.5l2.423 5c4.592 9.472 4.321 9.275 45.557 33.073 48.381 27.922 41.753 27.816 87.626 1.401 44.371-25.549 47.095-27.642 48.965-37.609.346-1.841 1.029-3.1 1.519-2.797.515.318.884-18.108.875-43.759-.01-28.977-.351-43.79-.985-42.809-.804 1.244-.974 1.158-.994-.5-.04-3.222-5.537-11.905-9.405-14.855-4.259-3.249-63.942-37.887-71.101-41.266C98.669-.373 89.824-.71 83.571 1.58m5.227 12.461c-2.036.346-9.236 3.807-16 7.691-6.764 3.885-14.548 8.299-17.298 9.81-2.75 1.511-8.531 4.82-12.847 7.353-4.316 2.533-9.716 5.666-12 6.962-8.492 4.819-11.849 7.62-14.466 12.073L13.5 62.5l-.296 36.835C12.795 150.13 11.57 147.147 39.352 163a7935.243 7935.243 0 0 1 29.364 16.844c23.181 13.39 24.236 13.415 45.694 1.084 8.066-4.635 21.962-12.607 30.878-17.715 27.918-15.992 26.964-13.676 26.521-64.404-.385-44.012-.041-42.915-16.414-52.309-2.876-1.65-8.754-5.072-13.062-7.605-4.308-2.533-10.083-5.842-12.833-7.353-2.75-1.511-10.509-5.911-17.242-9.777-12.722-7.306-17.211-8.784-23.46-7.724M49.509 53.25c-.909 2.888-2.051 6.15-2.539 7.25-.487 1.1-2.518 6.5-4.512 12-1.994 5.5-4.664 12.7-5.933 16-1.27 3.3-2.637 7.125-3.039 8.5-.402 1.375-1.052 2.95-1.444 3.5-.393.55-1.525 3.7-2.515 7-.991 3.3-2.128 6.45-2.527 7-.399.55-1.544 3.7-2.545 7-1.002 3.3-2.452 6.991-3.222 8.203-.771 1.211-1.476 4.361-1.567 7L19.5 141.5l4.693.302c6.35.41 6.056.891 14.85-24.302a662.3 662.3 0 0 1 5.467-15c1.471-3.85 3.351-9.025 4.178-11.5.827-2.475 2.083-5.85 2.79-7.5.707-1.65 1.843-4.8 2.525-7 2.53-8.17 3.149-7.488 9.529 10.5a790.655 790.655 0 0 0 4.963 13.5c1.462 3.85 3.55 9.7 4.642 13 1.091 3.3 2.441 6.836 3 7.859.558 1.022 1.833 4.397 2.832 7.5 3.928 12.202 4.66 13.103 10.659 13.126 4.526.016 7.324-2.087 5.632-4.235-.541-.687-1.306-2.6-1.699-4.25s-1.325-4.35-2.071-6c-.745-1.65-2.046-5.025-2.89-7.5-1.785-5.23-6.375-17.813-7.296-20a51.64 51.64 0 0 1-.804-2 94.362 94.362 0 0 0-.751-2c-.318-.825-1.347-3.75-2.287-6.5-3.645-10.662-6.018-17.05-6.773-18.234-.433-.679-1.486-3.604-2.34-6.5-.854-2.896-1.88-5.716-2.279-6.266-.399-.55-1.515-3.138-2.481-5.75L61.835 48H51.161l-1.652 5.25m47.8-4c-.445.688-.899 17.261-1.008 36.831-.33 58.83-.989 57.919 41.933 57.919 31.637 0 29.685.728 29.734-11.095.048-11.46 1.582-10.905-30.169-10.905h-26.543l-.664-4.148c-.364-2.281-.612-18.467-.55-35.97.062-17.502-.174-32.286-.524-32.852-.918-1.486-11.225-1.3-12.209.22M.46 103c0 24.475.13 34.488.289 22.25.159-12.237.159-32.262 0-44.5C.59 68.513.46 78.525.46 103" fill-rule="evenodd"/><path fill="#070707" stroke="#070707" d="M97.573 51.375c-1.076 5.396-.617 70.318.536 75.826 2.984 14.257 4.443 14.799 39.824 14.799 32.154 0 29.631.831 29.475-9.707-.144-9.769 1.362-9.293-29.405-9.293H111.25l-.625-3.125c-.344-1.719-.657-17.806-.695-35.75-.039-17.944-.376-33.3-.75-34.125-.477-1.053-2.224-1.5-5.857-1.5-4.902 0-5.207.152-5.75 2.875" fill-rule="evenodd"/></svg>